<svg width="410" height="422" viewBox="0 0 410 422" fill="none" xmlns="http://www.w3.org/2000/svg">
<rect y="11.6199" width="410" height="410" rx="78" fill="#FBFBFB"/>
<path d="M72.6836 113.476C64.2754 104.076 34.487 72.5285 54.167 43.8319C58.5827 47.9821 113.172 72.2987 132.782 98.5373C163.564 139.725 138.728 157.069 106.595 196.94C80.8882 228.837 88.2325 147.038 72.6836 113.476Z" fill="#FFB8B8" stroke="#FFD0D0" stroke-width="8"/>
<rect x="23.5" y="35.1199" width="363" height="363" rx="54.5" stroke="#22559C" stroke-width="47"/>
<path d="M301.81 94.8491C309.059 84.5287 330.62 42.2451 307.712 16.0531C303.814 20.6923 225.846 50.4596 243.699 86.4347C266.557 132.495 240.29 144.505 276.876 180.334C306.144 208.998 305.769 131.341 301.81 94.8491Z" fill="#FFB8B8" stroke="#FFD0D0" stroke-width="8"/>
<ellipse cx="205.018" cy="269.392" rx="150" ry="129.5" transform="rotate(-5.50908 205.018 269.392)" fill="#FFD0D0"/>
<ellipse cx="198.97" cy="206.682" rx="127" ry="107.5" transform="rotate(-5.50908 198.97 206.682)" fill="#FFD0D0"/>
<path d="M263.536 167.804C264.331 176.05 258.291 183.38 250.045 184.175C241.799 184.97 234.47 178.931 233.674 170.684C232.879 162.438 238.919 155.109 247.165 154.314C255.411 153.518 262.74 159.558 263.536 167.804Z" fill="#424242"/>
<path d="M263.038 167.852C263.807 175.824 257.968 182.909 249.997 183.677C242.026 184.446 234.941 178.608 234.172 170.636C233.403 162.665 239.242 155.58 247.213 154.811C255.184 154.043 262.269 159.881 263.038 167.852Z" stroke="#E5E5E5" stroke-opacity="0.08"/>
<circle cx="243.34" cy="166.738" r="5" transform="rotate(-5.50908 243.34 166.738)" fill="white"/>
<path d="M158.025 177.981C158.821 186.227 152.781 193.556 144.535 194.352C136.289 195.147 128.959 189.107 128.164 180.861C127.369 172.615 133.409 165.285 141.655 164.49C149.901 163.695 157.23 169.735 158.025 177.981Z" fill="#424242"/>
<path d="M157.528 178.029C158.297 186 152.458 193.085 144.487 193.854C136.516 194.623 129.43 188.784 128.662 180.813C127.893 172.842 133.731 165.757 141.703 164.988C149.674 164.219 156.759 170.058 157.528 178.029Z" stroke="#E5E5E5" stroke-opacity="0.08"/>
<circle cx="139.821" cy="176.723" r="5" transform="rotate(-5.50908 139.821 176.723)" fill="white"/>
<path d="M264.545 265.499C266.754 288.401 241.666 309.559 208.51 312.757C175.354 315.954 146.686 299.981 144.477 277.08C142.268 254.178 167.355 233.02 200.511 229.822C233.667 226.624 262.336 242.598 264.545 265.499Z" fill="#ECAAAA" fill-opacity="0.71"/>
<ellipse cx="204.146" cy="263.608" rx="60.3127" ry="41.6596" transform="rotate(-5.50908 204.146 263.608)" fill="#FFB8B8"/>
<ellipse cx="181.099" cy="266.173" rx="9.5" ry="13" transform="rotate(-5.50908 181.099 266.173)" fill="#353535" fill-opacity="0.81"/>
<ellipse cx="225.891" cy="261.853" rx="9.5" ry="13" transform="rotate(-5.50908 225.891 261.853)" fill="#353535" fill-opacity="0.81"/>
</svg>
